<?xml version="1.0" encoding="UTF-8" standalone="no"?>
<!DOCTYPE svg PUBLIC "-//W3C//DTD SVG 1.1//EN"
 "http://www.w3.org/Graphics/SVG/1.1/DTD/svg11.dtd">
<!-- Generated by graphviz version 2.40.1 (20161225.0304)
 -->
<!-- Title: %3 Pages: 1 -->
<svg width="466pt" height="188pt"
 viewBox="0.00 0.00 465.99 188.00" xmlns="http://www.w3.org/2000/svg" xmlns:xlink="http://www.w3.org/1999/xlink">
<g id="graph0" class="graph" transform="scale(1 1) rotate(0) translate(4 184)">
<title>%3</title>
<polygon fill="#ffffff" stroke="transparent" points="-4,4 -4,-184 461.9908,-184 461.9908,4 -4,4"/>
<!-- Add(Pow(Symbol(&#39;x&#39;), Integer(2)), Mul(Symbol(&#39;x&#39;), Symbol(&#39;y&#39;)))_() -->
<g id="node1" class="node">
<title>Add(Pow(Symbol(&#39;x&#39;), Integer(2)), Mul(Symbol(&#39;x&#39;), Symbol(&#39;y&#39;)))_()</title>
<ellipse fill="none" stroke="#000000" cx="225.9954" cy="-162" rx="27" ry="18"/>
<text text-anchor="middle" x="225.9954" y="-158.3" font-family="Times,serif" font-size="14.00" fill="#000000">Add</text>
</g>
<!-- Pow(Symbol(&#39;x&#39;), Integer(2))_(0,) -->
<g id="node2" class="node">
<title>Pow(Symbol(&#39;x&#39;), Integer(2))_(0,)</title>
<ellipse fill="none" stroke="#000000" cx="167.9954" cy="-90" rx="27" ry="18"/>
<text text-anchor="middle" x="167.9954" y="-86.3" font-family="Times,serif" font-size="14.00" fill="#000000">Pow</text>
</g>
<!-- Add(Pow(Symbol(&#39;x&#39;), Integer(2)), Mul(Symbol(&#39;x&#39;), Symbol(&#39;y&#39;)))_()&#45;&gt;Pow(Symbol(&#39;x&#39;), Integer(2))_(0,) -->
<g id="edge1" class="edge">
<title>Add(Pow(Symbol(&#39;x&#39;), Integer(2)), Mul(Symbol(&#39;x&#39;), Symbol(&#39;y&#39;)))_()&#45;&gt;Pow(Symbol(&#39;x&#39;), Integer(2))_(0,)</title>
<path fill="none" stroke="#000000" d="M213.1233,-146.0209C205.5392,-136.6061 195.7972,-124.5126 187.307,-113.973"/>
<polygon fill="#000000" stroke="#000000" points="189.8305,-111.5264 180.8315,-105.9345 184.3792,-115.9177 189.8305,-111.5264"/>
</g>
<!-- Mul(Symbol(&#39;x&#39;), Symbol(&#39;y&#39;))_(1,) -->
<g id="node5" class="node">
<title>Mul(Symbol(&#39;x&#39;), Symbol(&#39;y&#39;))_(1,)</title>
<ellipse fill="none" stroke="#000000" cx="283.9954" cy="-90" rx="27" ry="18"/>
<text text-anchor="middle" x="283.9954" y="-86.3" font-family="Times,serif" font-size="14.00" fill="#000000">Mul</text>
</g>
<!-- Add(Pow(Symbol(&#39;x&#39;), Integer(2)), Mul(Symbol(&#39;x&#39;), Symbol(&#39;y&#39;)))_()&#45;&gt;Mul(Symbol(&#39;x&#39;), Symbol(&#39;y&#39;))_(1,) -->
<g id="edge2" class="edge">
<title>Add(Pow(Symbol(&#39;x&#39;), Integer(2)), Mul(Symbol(&#39;x&#39;), Symbol(&#39;y&#39;)))_()&#45;&gt;Mul(Symbol(&#39;x&#39;), Symbol(&#39;y&#39;))_(1,)</title>
<path fill="none" stroke="#000000" d="M238.8675,-146.0209C246.4516,-136.6061 256.1936,-124.5126 264.6838,-113.973"/>
<polygon fill="#000000" stroke="#000000" points="267.6116,-115.9177 271.1593,-105.9345 262.1603,-111.5264 267.6116,-115.9177"/>
</g>
<!-- Symbol(&#39;x&#39;)_(0, 0) -->
<g id="node3" class="node">
<title>Symbol(&#39;x&#39;)_(0, 0)</title>
<ellipse fill="none" stroke="#000000" cx="51.9954" cy="-18" rx="51.9908" ry="18"/>
<text text-anchor="middle" x="51.9954" y="-14.3" font-family="Times,serif" font-size="14.00" fill="#000000">Symbol(&#39;x&#39;)</text>
</g>
<!-- Pow(Symbol(&#39;x&#39;), Integer(2))_(0,)&#45;&gt;Symbol(&#39;x&#39;)_(0, 0) -->
<g id="edge3" class="edge">
<title>Pow(Symbol(&#39;x&#39;), Integer(2))_(0,)&#45;&gt;Symbol(&#39;x&#39;)_(0, 0)</title>
<path fill="none" stroke="#000000" d="M148.0543,-77.6228C131.0132,-67.0456 106.1243,-51.5973 85.951,-39.0759"/>
<polygon fill="#000000" stroke="#000000" points="87.6879,-36.0346 77.3457,-33.7347 83.9963,-41.9821 87.6879,-36.0346"/>
</g>
<!-- Integer(2)_(0, 1) -->
<g id="node4" class="node">
<title>Integer(2)_(0, 1)</title>
<ellipse fill="none" stroke="#000000" cx="167.9954" cy="-18" rx="46.2923" ry="18"/>
<text text-anchor="middle" x="167.9954" y="-14.3" font-family="Times,serif" font-size="14.00" fill="#000000">Integer(2)</text>
</g>
<!-- Pow(Symbol(&#39;x&#39;), Integer(2))_(0,)&#45;&gt;Integer(2)_(0, 1) -->
<g id="edge4" class="edge">
<title>Pow(Symbol(&#39;x&#39;), Integer(2))_(0,)&#45;&gt;Integer(2)_(0, 1)</title>
<path fill="none" stroke="#000000" d="M167.9954,-71.8314C167.9954,-64.131 167.9954,-54.9743 167.9954,-46.4166"/>
<polygon fill="#000000" stroke="#000000" points="171.4955,-46.4132 167.9954,-36.4133 164.4955,-46.4133 171.4955,-46.4132"/>
</g>
<!-- Symbol(&#39;x&#39;)_(1, 0) -->
<g id="node6" class="node">
<title>Symbol(&#39;x&#39;)_(1, 0)</title>
<ellipse fill="none" stroke="#000000" cx="283.9954" cy="-18" rx="51.9908" ry="18"/>
<text text-anchor="middle" x="283.9954" y="-14.3" font-family="Times,serif" font-size="14.00" fill="#000000">Symbol(&#39;x&#39;)</text>
</g>
<!-- Mul(Symbol(&#39;x&#39;), Symbol(&#39;y&#39;))_(1,)&#45;&gt;Symbol(&#39;x&#39;)_(1, 0) -->
<g id="edge5" class="edge">
<title>Mul(Symbol(&#39;x&#39;), Symbol(&#39;y&#39;))_(1,)&#45;&gt;Symbol(&#39;x&#39;)_(1, 0)</title>
<path fill="none" stroke="#000000" d="M283.9954,-71.8314C283.9954,-64.131 283.9954,-54.9743 283.9954,-46.4166"/>
<polygon fill="#000000" stroke="#000000" points="287.4955,-46.4132 283.9954,-36.4133 280.4955,-46.4133 287.4955,-46.4132"/>
</g>
<!-- Symbol(&#39;y&#39;)_(1, 1) -->
<g id="node7" class="node">
<title>Symbol(&#39;y&#39;)_(1, 1)</title>
<ellipse fill="none" stroke="#000000" cx="405.9954" cy="-18" rx="51.9908" ry="18"/>
<text text-anchor="middle" x="405.9954" y="-14.3" font-family="Times,serif" font-size="14.00" fill="#000000">Symbol(&#39;y&#39;)</text>
</g>
<!-- Mul(Symbol(&#39;x&#39;), Symbol(&#39;y&#39;))_(1,)&#45;&gt;Symbol(&#39;y&#39;)_(1, 1) -->
<g id="edge6" class="edge">
<title>Mul(Symbol(&#39;x&#39;), Symbol(&#39;y&#39;))_(1,)&#45;&gt;Symbol(&#39;y&#39;)_(1, 1)</title>
<path fill="none" stroke="#000000" d="M304.4154,-77.9488C322.459,-67.3002 349.1719,-51.5352 370.6759,-38.8443"/>
<polygon fill="#000000" stroke="#000000" points="372.6994,-41.7142 379.5326,-33.6174 369.1416,-35.6857 372.6994,-41.7142"/>
</g>
</g>
</svg>
