<?xml version="1.0" encoding="UTF-8" standalone="no"?>
<!DOCTYPE svg PUBLIC "-//W3C//DTD SVG 1.1//EN"
 "http://www.w3.org/Graphics/SVG/1.1/DTD/svg11.dtd">
<!-- Generated by graphviz version 2.40.1 (20161225.0304)
 -->
<!-- Title: %3 Pages: 1 -->
<svg width="715pt" height="332pt"
 viewBox="0.00 0.00 715.14 332.00" xmlns="http://www.w3.org/2000/svg" xmlns:xlink="http://www.w3.org/1999/xlink">
<g id="graph0" class="graph" transform="scale(1 1) rotate(0) translate(4 328)">
<title>%3</title>
<polygon fill="#ffffff" stroke="transparent" points="-4,4 -4,-328 711.1413,-328 711.1413,4 -4,4"/>
<!-- Half()_(0, 0) -->
<g id="node1" class="node">
<title>Half()_(0, 0)</title>
<ellipse fill="none" stroke="#000000" cx="297.9954" cy="-162" rx="59.5901" ry="18"/>
<text text-anchor="middle" x="297.9954" y="-158.3" font-family="Times,serif" font-size="14.00" fill="#000000">Rational(1, 2)</text>
</g>
<!-- Symbol(y)_(2, 0) -->
<g id="node2" class="node">
<title>Symbol(y)_(2, 0)</title>
<ellipse fill="none" stroke="#000000" cx="51.9954" cy="-162" rx="51.9908" ry="18"/>
<text text-anchor="middle" x="51.9954" y="-158.3" font-family="Times,serif" font-size="14.00" fill="#000000">Symbol(&#39;y&#39;)</text>
</g>
<!-- Symbol(x)_(1, 1, 0) -->
<g id="node3" class="node">
<title>Symbol(x)_(1, 1, 0)</title>
<ellipse fill="none" stroke="#000000" cx="544.9954" cy="-90" rx="51.9908" ry="18"/>
<text text-anchor="middle" x="544.9954" y="-86.3" font-family="Times,serif" font-size="14.00" fill="#000000">Symbol(&#39;x&#39;)</text>
</g>
<!-- Integer(2)_(1, 1, 1) -->
<g id="node4" class="node">
<title>Integer(2)_(1, 1, 1)</title>
<ellipse fill="none" stroke="#000000" cx="660.9954" cy="-90" rx="46.2923" ry="18"/>
<text text-anchor="middle" x="660.9954" y="-86.3" font-family="Times,serif" font-size="14.00" fill="#000000">Integer(2)</text>
</g>
<!-- NegativeOne()_(2, 1) -->
<g id="node5" class="node">
<title>NegativeOne()_(2, 1)</title>
<ellipse fill="none" stroke="#000000" cx="170.9954" cy="-162" rx="48.9926" ry="18"/>
<text text-anchor="middle" x="170.9954" y="-158.3" font-family="Times,serif" font-size="14.00" fill="#000000">Integer(&#45;1)</text>
</g>
<!-- NegativeOne()_(1, 0) -->
<g id="node6" class="node">
<title>NegativeOne()_(1, 0)</title>
<ellipse fill="none" stroke="#000000" cx="496.9954" cy="-162" rx="48.9926" ry="18"/>
<text text-anchor="middle" x="496.9954" y="-158.3" font-family="Times,serif" font-size="14.00" fill="#000000">Integer(&#45;1)</text>
</g>
<!-- Symbol(y)_(0, 1, 0, 1) -->
<g id="node7" class="node">
<title>Symbol(y)_(0, 1, 0, 1)</title>
<ellipse fill="none" stroke="#000000" cx="341.9954" cy="-18" rx="51.9908" ry="18"/>
<text text-anchor="middle" x="341.9954" y="-14.3" font-family="Times,serif" font-size="14.00" fill="#000000">Symbol(&#39;y&#39;)</text>
</g>
<!-- Symbol(x)_(0, 1, 0, 0) -->
<g id="node8" class="node">
<title>Symbol(x)_(0, 1, 0, 0)</title>
<ellipse fill="none" stroke="#000000" cx="463.9954" cy="-18" rx="51.9908" ry="18"/>
<text text-anchor="middle" x="463.9954" y="-14.3" font-family="Times,serif" font-size="14.00" fill="#000000">Symbol(&#39;x&#39;)</text>
</g>
<!-- Pow(Symbol(x), Integer(2))_(1, 1) -->
<g id="node9" class="node">
<title>Pow(Symbol(x), Integer(2))_(1, 1)</title>
<ellipse fill="none" stroke="#000000" cx="590.9954" cy="-162" rx="27" ry="18"/>
<text text-anchor="middle" x="590.9954" y="-158.3" font-family="Times,serif" font-size="14.00" fill="#000000">Pow</text>
</g>
<!-- Pow(Symbol(x), Integer(2))_(1, 1)&#45;&gt;Symbol(x)_(1, 1, 0) -->
<g id="edge2" class="edge">
<title>Pow(Symbol(x), Integer(2))_(1, 1)&#45;&gt;Symbol(x)_(1, 1, 0)</title>
<path fill="none" stroke="#000000" d="M580.3264,-145.3008C574.7993,-136.6496 567.9234,-125.8873 561.7102,-116.1623"/>
<polygon fill="#000000" stroke="#000000" points="564.5816,-114.1558 556.2483,-107.6132 558.6827,-117.9245 564.5816,-114.1558"/>
</g>
<!-- Pow(Symbol(x), Integer(2))_(1, 1)&#45;&gt;Integer(2)_(1, 1, 1) -->
<g id="edge3" class="edge">
<title>Pow(Symbol(x), Integer(2))_(1, 1)&#45;&gt;Integer(2)_(1, 1, 1)</title>
<path fill="none" stroke="#000000" d="M605.8406,-146.7307C614.9475,-137.3635 626.8161,-125.1558 637.2095,-114.4654"/>
<polygon fill="#000000" stroke="#000000" points="639.9949,-116.6215 644.4562,-107.0117 634.9759,-111.7419 639.9949,-116.6215"/>
</g>
<!-- Pow(Symbol(y), NegativeOne())_(2,) -->
<g id="node10" class="node">
<title>Pow(Symbol(y), NegativeOne())_(2,)</title>
<ellipse fill="none" stroke="#000000" cx="170.9954" cy="-234" rx="27" ry="18"/>
<text text-anchor="middle" x="170.9954" y="-230.3" font-family="Times,serif" font-size="14.00" fill="#000000">Pow</text>
</g>
<!-- Pow(Symbol(y), NegativeOne())_(2,)&#45;&gt;Symbol(y)_(2, 0) -->
<g id="edge1" class="edge">
<title>Pow(Symbol(y), NegativeOne())_(2,)&#45;&gt;Symbol(y)_(2, 0)</title>
<path fill="none" stroke="#000000" d="M150.8087,-221.7862C133.286,-211.1842 107.5295,-195.6005 86.7059,-183.0013"/>
<polygon fill="#000000" stroke="#000000" points="88.4896,-179.9898 78.1219,-177.8077 84.866,-185.9789 88.4896,-179.9898"/>
</g>
<!-- Pow(Symbol(y), NegativeOne())_(2,)&#45;&gt;NegativeOne()_(2, 1) -->
<g id="edge4" class="edge">
<title>Pow(Symbol(y), NegativeOne())_(2,)&#45;&gt;NegativeOne()_(2, 1)</title>
<path fill="none" stroke="#000000" d="M170.9954,-215.8314C170.9954,-208.131 170.9954,-198.9743 170.9954,-190.4166"/>
<polygon fill="#000000" stroke="#000000" points="174.4955,-190.4132 170.9954,-180.4133 167.4955,-190.4133 174.4955,-190.4132"/>
</g>
<!-- Mul(Symbol(x), Symbol(y))_(0, 1, 0) -->
<g id="node11" class="node">
<title>Mul(Symbol(x), Symbol(y))_(0, 1, 0)</title>
<ellipse fill="none" stroke="#000000" cx="402.9954" cy="-90" rx="27" ry="18"/>
<text text-anchor="middle" x="402.9954" y="-86.3" font-family="Times,serif" font-size="14.00" fill="#000000">Mul</text>
</g>
<!-- Mul(Symbol(x), Symbol(y))_(0, 1, 0)&#45;&gt;Symbol(y)_(0, 1, 0, 1) -->
<g id="edge6" class="edge">
<title>Mul(Symbol(x), Symbol(y))_(0, 1, 0)&#45;&gt;Symbol(y)_(0, 1, 0, 1)</title>
<path fill="none" stroke="#000000" d="M389.4575,-74.0209C381.8134,-64.9983 372.0851,-53.5157 363.4286,-43.2982"/>
<polygon fill="#000000" stroke="#000000" points="365.911,-40.8138 356.7764,-35.4464 360.5701,-45.3388 365.911,-40.8138"/>
</g>
<!-- Mul(Symbol(x), Symbol(y))_(0, 1, 0)&#45;&gt;Symbol(x)_(0, 1, 0, 0) -->
<g id="edge5" class="edge">
<title>Mul(Symbol(x), Symbol(y))_(0, 1, 0)&#45;&gt;Symbol(x)_(0, 1, 0, 0)</title>
<path fill="none" stroke="#000000" d="M416.5333,-74.0209C424.1773,-64.9983 433.9057,-53.5157 442.5622,-43.2982"/>
<polygon fill="#000000" stroke="#000000" points="445.4206,-45.3388 449.2144,-35.4464 440.0797,-40.8138 445.4206,-45.3388"/>
</g>
<!-- sin(Mul(Symbol(x), Symbol(y)))_(0, 1) -->
<g id="node12" class="node">
<title>sin(Mul(Symbol(x), Symbol(y)))_(0, 1)</title>
<ellipse fill="none" stroke="#000000" cx="402.9954" cy="-162" rx="27" ry="18"/>
<text text-anchor="middle" x="402.9954" y="-158.3" font-family="Times,serif" font-size="14.00" fill="#000000">sin</text>
</g>
<!-- sin(Mul(Symbol(x), Symbol(y)))_(0, 1)&#45;&gt;Mul(Symbol(x), Symbol(y))_(0, 1, 0) -->
<g id="edge9" class="edge">
<title>sin(Mul(Symbol(x), Symbol(y)))_(0, 1)&#45;&gt;Mul(Symbol(x), Symbol(y))_(0, 1, 0)</title>
<path fill="none" stroke="#000000" d="M402.9954,-143.8314C402.9954,-136.131 402.9954,-126.9743 402.9954,-118.4166"/>
<polygon fill="#000000" stroke="#000000" points="406.4955,-118.4132 402.9954,-108.4133 399.4955,-118.4133 406.4955,-118.4132"/>
</g>
<!-- Mul(Half(), sin(Mul(Symbol(x), Symbol(y))))_(0,) -->
<g id="node13" class="node">
<title>Mul(Half(), sin(Mul(Symbol(x), Symbol(y))))_(0,)</title>
<ellipse fill="none" stroke="#000000" cx="349.9954" cy="-234" rx="27" ry="18"/>
<text text-anchor="middle" x="349.9954" y="-230.3" font-family="Times,serif" font-size="14.00" fill="#000000">Mul</text>
</g>
<!-- Mul(Half(), sin(Mul(Symbol(x), Symbol(y))))_(0,)&#45;&gt;Half()_(0, 0) -->
<g id="edge7" class="edge">
<title>Mul(Half(), sin(Mul(Symbol(x), Symbol(y))))_(0,)&#45;&gt;Half()_(0, 0)</title>
<path fill="none" stroke="#000000" d="M338.1958,-217.6621C331.8919,-208.9336 323.9813,-197.9805 316.8488,-188.1047"/>
<polygon fill="#000000" stroke="#000000" points="319.5333,-185.8438 310.841,-179.7862 313.8585,-189.9422 319.5333,-185.8438"/>
</g>
<!-- Mul(Half(), sin(Mul(Symbol(x), Symbol(y))))_(0,)&#45;&gt;sin(Mul(Symbol(x), Symbol(y)))_(0, 1) -->
<g id="edge11" class="edge">
<title>Mul(Half(), sin(Mul(Symbol(x), Symbol(y))))_(0,)&#45;&gt;sin(Mul(Symbol(x), Symbol(y)))_(0, 1)</title>
<path fill="none" stroke="#000000" d="M362.0219,-217.6621C368.7983,-208.4564 377.3961,-196.7764 384.9641,-186.4953"/>
<polygon fill="#000000" stroke="#000000" points="387.9069,-188.4015 391.0165,-178.2733 382.2696,-184.2518 387.9069,-188.4015"/>
</g>
<!-- Mul(NegativeOne(), Pow(Symbol(x), Integer(2)))_(1,) -->
<g id="node14" class="node">
<title>Mul(NegativeOne(), Pow(Symbol(x), Integer(2)))_(1,)</title>
<ellipse fill="none" stroke="#000000" cx="496.9954" cy="-234" rx="27" ry="18"/>
<text text-anchor="middle" x="496.9954" y="-230.3" font-family="Times,serif" font-size="14.00" fill="#000000">Mul</text>
</g>
<!-- Mul(NegativeOne(), Pow(Symbol(x), Integer(2)))_(1,)&#45;&gt;NegativeOne()_(1, 0) -->
<g id="edge8" class="edge">
<title>Mul(NegativeOne(), Pow(Symbol(x), Integer(2)))_(1,)&#45;&gt;NegativeOne()_(1, 0)</title>
<path fill="none" stroke="#000000" d="M496.9954,-215.8314C496.9954,-208.131 496.9954,-198.9743 496.9954,-190.4166"/>
<polygon fill="#000000" stroke="#000000" points="500.4955,-190.4132 496.9954,-180.4133 493.4955,-190.4133 500.4955,-190.4132"/>
</g>
<!-- Mul(NegativeOne(), Pow(Symbol(x), Integer(2)))_(1,)&#45;&gt;Pow(Symbol(x), Integer(2))_(1, 1) -->
<g id="edge10" class="edge">
<title>Mul(NegativeOne(), Pow(Symbol(x), Integer(2)))_(1,)&#45;&gt;Pow(Symbol(x), Integer(2))_(1, 1)</title>
<path fill="none" stroke="#000000" d="M515.1195,-220.1177C529.254,-209.2913 549.0771,-194.1076 564.917,-181.975"/>
<polygon fill="#000000" stroke="#000000" points="567.4351,-184.4549 573.2457,-175.5955 563.1786,-178.8978 567.4351,-184.4549"/>
</g>
<!-- Add(Mul(Half(), sin(Mul(Symbol(x), Symbol(y)))), Mul(NegativeOne(), Pow(Symbol(x), Integer(2))), Pow(Symbol(y), NegativeOne()))_() -->
<g id="node15" class="node">
<title>Add(Mul(Half(), sin(Mul(Symbol(x), Symbol(y)))), Mul(NegativeOne(), Pow(Symbol(x), Integer(2))), Pow(Symbol(y), NegativeOne()))_()</title>
<ellipse fill="none" stroke="#000000" cx="349.9954" cy="-306" rx="27" ry="18"/>
<text text-anchor="middle" x="349.9954" y="-302.3" font-family="Times,serif" font-size="14.00" fill="#000000">Add</text>
</g>
<!-- Add(Mul(Half(), sin(Mul(Symbol(x), Symbol(y)))), Mul(NegativeOne(), Pow(Symbol(x), Integer(2))), Pow(Symbol(y), NegativeOne()))_()&#45;&gt;Pow(Symbol(y), NegativeOne())_(2,) -->
<g id="edge12" class="edge">
<title>Add(Mul(Half(), sin(Mul(Symbol(x), Symbol(y)))), Mul(NegativeOne(), Pow(Symbol(x), Integer(2))), Pow(Symbol(y), NegativeOne()))_()&#45;&gt;Pow(Symbol(y), NegativeOne())_(2,)</title>
<path fill="none" stroke="#000000" d="M326.5943,-296.5873C295.1505,-283.9395 239.1135,-261.3995 203.5645,-247.1004"/>
<polygon fill="#000000" stroke="#000000" points="204.7024,-243.7856 194.1186,-243.301 202.0901,-250.28 204.7024,-243.7856"/>
</g>
<!-- Add(Mul(Half(), sin(Mul(Symbol(x), Symbol(y)))), Mul(NegativeOne(), Pow(Symbol(x), Integer(2))), Pow(Symbol(y), NegativeOne()))_()&#45;&gt;Mul(Half(), sin(Mul(Symbol(x), Symbol(y))))_(0,) -->
<g id="edge13" class="edge">
<title>Add(Mul(Half(), sin(Mul(Symbol(x), Symbol(y)))), Mul(NegativeOne(), Pow(Symbol(x), Integer(2))), Pow(Symbol(y), NegativeOne()))_()&#45;&gt;Mul(Half(), sin(Mul(Symbol(x), Symbol(y))))_(0,)</title>
<path fill="none" stroke="#000000" d="M349.9954,-287.8314C349.9954,-280.131 349.9954,-270.9743 349.9954,-262.4166"/>
<polygon fill="#000000" stroke="#000000" points="353.4955,-262.4132 349.9954,-252.4133 346.4955,-262.4133 353.4955,-262.4132"/>
</g>
<!-- Add(Mul(Half(), sin(Mul(Symbol(x), Symbol(y)))), Mul(NegativeOne(), Pow(Symbol(x), Integer(2))), Pow(Symbol(y), NegativeOne()))_()&#45;&gt;Mul(NegativeOne(), Pow(Symbol(x), Integer(2)))_(1,) -->
<g id="edge14" class="edge">
<title>Add(Mul(Half(), sin(Mul(Symbol(x), Symbol(y)))), Mul(NegativeOne(), Pow(Symbol(x), Integer(2))), Pow(Symbol(y), NegativeOne()))_()&#45;&gt;Mul(NegativeOne(), Pow(Symbol(x), Integer(2)))_(1,)</title>
<path fill="none" stroke="#000000" d="M372.0028,-295.2209C396.9007,-283.026 437.641,-263.0716 465.8082,-249.2753"/>
<polygon fill="#000000" stroke="#000000" points="467.3965,-252.3948 474.8376,-244.8528 464.3174,-246.1083 467.3965,-252.3948"/>
</g>
</g>
</svg>
