<?xml version="1.0" encoding="UTF-8" standalone="no"?>
<!DOCTYPE svg PUBLIC "-//W3C//DTD SVG 1.1//EN"
 "http://www.w3.org/Graphics/SVG/1.1/DTD/svg11.dtd">
<!-- Generated by graphviz version 2.40.1 (20161225.0304)
 -->
<!-- Title: %3 Pages: 1 -->
<svg width="265pt" height="188pt"
 viewBox="0.00 0.00 264.74 188.00" xmlns="http://www.w3.org/2000/svg" xmlns:xlink="http://www.w3.org/1999/xlink">
<g id="graph0" class="graph" transform="scale(1 1) rotate(0) translate(4 184)">
<title>%3</title>
<polygon fill="#ffffff" stroke="transparent" points="-4,4 -4,-184 260.7411,-184 260.7411,4 -4,4"/>
<!-- Symbol(x)_(0,) -->
<g id="node1" class="node">
<title>Symbol(x)_(0,)</title>
<ellipse fill="none" stroke="#000000" cx="51.9954" cy="-90" rx="51.9908" ry="18"/>
<text text-anchor="middle" x="51.9954" y="-86.3" font-family="Times,serif" font-size="14.00" fill="#000000">Symbol(&#39;x&#39;)</text>
</g>
<!-- Symbol(y)_(1, 0) -->
<g id="node2" class="node">
<title>Symbol(y)_(1, 0)</title>
<ellipse fill="none" stroke="#000000" cx="88.9954" cy="-18" rx="51.9908" ry="18"/>
<text text-anchor="middle" x="88.9954" y="-14.3" font-family="Times,serif" font-size="14.00" fill="#000000">Symbol(&#39;y&#39;)</text>
</g>
<!-- NegativeOne()_(1, 1) -->
<g id="node3" class="node">
<title>NegativeOne()_(1, 1)</title>
<ellipse fill="none" stroke="#000000" cx="207.9954" cy="-18" rx="48.9926" ry="18"/>
<text text-anchor="middle" x="207.9954" y="-14.3" font-family="Times,serif" font-size="14.00" fill="#000000">Integer(&#45;1)</text>
</g>
<!-- Pow(Symbol(y), NegativeOne())_(1,) -->
<g id="node4" class="node">
<title>Pow(Symbol(y), NegativeOne())_(1,)</title>
<ellipse fill="none" stroke="#000000" cx="148.9954" cy="-90" rx="27" ry="18"/>
<text text-anchor="middle" x="148.9954" y="-86.3" font-family="Times,serif" font-size="14.00" fill="#000000">Pow</text>
</g>
<!-- Pow(Symbol(y), NegativeOne())_(1,)&#45;&gt;Symbol(y)_(1, 0) -->
<g id="edge1" class="edge">
<title>Pow(Symbol(y), NegativeOne())_(1,)&#45;&gt;Symbol(y)_(1, 0)</title>
<path fill="none" stroke="#000000" d="M135.6794,-74.0209C128.1607,-64.9983 118.5918,-53.5157 110.0773,-43.2982"/>
<polygon fill="#000000" stroke="#000000" points="112.6247,-40.888 103.5341,-35.4464 107.2472,-45.3693 112.6247,-40.888"/>
</g>
<!-- Pow(Symbol(y), NegativeOne())_(1,)&#45;&gt;NegativeOne()_(1, 1) -->
<g id="edge2" class="edge">
<title>Pow(Symbol(y), NegativeOne())_(1,)&#45;&gt;NegativeOne()_(1, 1)</title>
<path fill="none" stroke="#000000" d="M162.0894,-74.0209C169.4829,-64.9983 178.8922,-53.5157 187.2649,-43.2982"/>
<polygon fill="#000000" stroke="#000000" points="190.0679,-45.3996 193.699,-35.4464 184.6536,-40.9628 190.0679,-45.3996"/>
</g>
<!-- Mul(Symbol(x), Pow(Symbol(y), NegativeOne()))_() -->
<g id="node5" class="node">
<title>Mul(Symbol(x), Pow(Symbol(y), NegativeOne()))_()</title>
<ellipse fill="none" stroke="#000000" cx="99.9954" cy="-162" rx="27" ry="18"/>
<text text-anchor="middle" x="99.9954" y="-158.3" font-family="Times,serif" font-size="14.00" fill="#000000">Mul</text>
</g>
<!-- Mul(Symbol(x), Pow(Symbol(y), NegativeOne()))_()&#45;&gt;Symbol(x)_(0,) -->
<g id="edge3" class="edge">
<title>Mul(Symbol(x), Pow(Symbol(y), NegativeOne()))_()&#45;&gt;Symbol(x)_(0,)</title>
<path fill="none" stroke="#000000" d="M88.8626,-145.3008C83.0952,-136.6496 75.9202,-125.8873 69.4369,-116.1623"/>
<polygon fill="#000000" stroke="#000000" points="72.1967,-113.9922 63.7375,-107.6132 66.3724,-117.8752 72.1967,-113.9922"/>
</g>
<!-- Mul(Symbol(x), Pow(Symbol(y), NegativeOne()))_()&#45;&gt;Pow(Symbol(y), NegativeOne())_(1,) -->
<g id="edge4" class="edge">
<title>Mul(Symbol(x), Pow(Symbol(y), NegativeOne()))_()&#45;&gt;Pow(Symbol(y), NegativeOne())_(1,)</title>
<path fill="none" stroke="#000000" d="M111.3601,-145.3008C117.4827,-136.3043 125.1591,-125.0247 131.9795,-115.0029"/>
<polygon fill="#000000" stroke="#000000" points="134.9595,-116.845 137.6923,-106.6087 129.1725,-112.9066 134.9595,-116.845"/>
</g>
</g>
</svg>
