<?xml version="1.0" encoding="UTF-8" standalone="no"?>
<!DOCTYPE svg PUBLIC "-//W3C//DTD SVG 1.1//EN"
 "http://www.w3.org/Graphics/SVG/1.1/DTD/svg11.dtd">
<!-- Generated by graphviz version 2.40.1 (20161225.0304)
 -->
<!-- Title: %3 Pages: 1 -->
<svg width="134pt" height="188pt"
 viewBox="0.00 0.00 134.00 188.00" xmlns="http://www.w3.org/2000/svg" xmlns:xlink="http://www.w3.org/1999/xlink">
<g id="graph0" class="graph" transform="scale(1 1) rotate(0) translate(4 184)">
<title>%3</title>
<polygon fill="#ffffff" stroke="transparent" points="-4,4 -4,-184 130,-184 130,4 -4,4"/>
<!-- A -->
<g id="node1" class="node">
<title>A</title>
<ellipse fill="none" stroke="#000000" cx="27" cy="-162" rx="27" ry="18"/>
<text text-anchor="middle" x="27" y="-158.3" font-family="Times,serif" font-size="14.00" fill="#000000">A</text>
</g>
<!-- B -->
<g id="node2" class="node">
<title>B</title>
<ellipse fill="none" stroke="#000000" cx="55" cy="-90" rx="27" ry="18"/>
<text text-anchor="middle" x="55" y="-86.3" font-family="Times,serif" font-size="14.00" fill="#000000">B</text>
</g>
<!-- A&#45;&gt;B -->
<g id="edge1" class="edge">
<title>A&#45;&gt;B</title>
<path fill="none" stroke="#000000" d="M33.778,-144.5708C36.9872,-136.3187 40.8935,-126.2738 44.4758,-117.0623"/>
<polygon fill="#000000" stroke="#000000" points="47.8248,-118.1069 48.1874,-107.5182 41.3008,-115.5697 47.8248,-118.1069"/>
</g>
<!-- C -->
<g id="node3" class="node">
<title>C</title>
<ellipse fill="none" stroke="#000000" cx="27" cy="-18" rx="27" ry="18"/>
<text text-anchor="middle" x="27" y="-14.3" font-family="Times,serif" font-size="14.00" fill="#000000">C</text>
</g>
<!-- A&#45;&gt;C -->
<g id="edge2" class="edge">
<title>A&#45;&gt;C</title>
<path fill="none" stroke="#000000" d="M23.6685,-144.0736C21.8913,-133.5982 19.8913,-120.0982 19,-108 17.8244,-92.0432 17.8244,-87.9568 19,-72 19.6267,-63.4935 20.8015,-54.2939 22.0616,-45.9399"/>
<polygon fill="#000000" stroke="#000000" points="25.5398,-46.3546 23.6685,-35.9264 18.6282,-45.2455 25.5398,-46.3546"/>
</g>
<!-- B&#45;&gt;C -->
<g id="edge3" class="edge">
<title>B&#45;&gt;C</title>
<path fill="none" stroke="#000000" d="M42.8855,-73.6621C38.7637,-65.4353 34.5187,-55.2325 31.2255,-45.8179"/>
<polygon fill="#000000" stroke="#000000" points="34.4741,-44.4875 28.0764,-36.0423 27.8113,-46.6339 34.4741,-44.4875"/>
</g>
<!-- D -->
<g id="node4" class="node">
<title>D</title>
<ellipse fill="none" stroke="#000000" cx="99" cy="-18" rx="27" ry="18"/>
<text text-anchor="middle" x="99" y="-14.3" font-family="Times,serif" font-size="14.00" fill="#000000">D</text>
</g>
<!-- B&#45;&gt;D -->
<g id="edge5" class="edge">
<title>B&#45;&gt;D</title>
<path fill="none" stroke="#000000" d="M65.2051,-73.3008C70.5696,-64.5224 77.2626,-53.5703 83.2737,-43.7339"/>
<polygon fill="#000000" stroke="#000000" points="86.3167,-45.4666 88.5447,-35.1086 80.3437,-41.8164 86.3167,-45.4666"/>
</g>
<!-- C&#45;&gt;B -->
<g id="edge4" class="edge">
<title>C&#45;&gt;B</title>
<path fill="none" stroke="#000000" d="M39.1652,-34.4393C43.2606,-42.6273 47.4732,-52.7541 50.7493,-62.11"/>
<polygon fill="#000000" stroke="#000000" points="47.4845,-63.3898 53.8868,-71.8314 54.1461,-61.2397 47.4845,-63.3898"/>
</g>
</g>
</svg>
